<svg xmlns="http://www.w3.org/2000/svg" version="1.1" viewBox="-5.0 -10.0 110.0 135.0">
 <g>
  <path d="m83.141 96.387h-66.281c-0.80859 0-1.4609-0.65625-1.4609-1.4648v-89.844c0-0.80859 0.65234-1.4648 1.4609-1.4648h66.281c0.38672 0 0.75781 0.15625 1.0352 0.42969 0.27344 0.27344 0.42578 0.64844 0.42578 1.0352v89.844c0 0.38672-0.15234 0.76172-0.42578 1.0352-0.27734 0.27344-0.64844 0.42969-1.0352 0.42969zm-64.812-2.9297h63.344v-86.914h-63.344z"/>
  <path d="m42.543 32.297h-18.676c-0.38672 0-0.76172-0.15234-1.0352-0.42969-0.27734-0.27344-0.42969-0.64844-0.42969-1.0352 0-5.9648 4.8359-10.801 10.801-10.801 5.9688 0 10.805 4.8359 10.805 10.801 0 0.38672-0.15625 0.76172-0.42969 1.0352-0.27344 0.27344-0.64844 0.42969-1.0352 0.42969zm-17.074-2.9297h15.473c-0.70312-3.7188-3.9531-6.4141-7.7383-6.4141-3.7812 0-7.0312 2.6953-7.7344 6.4141z"/>
  <path d="m33.203 22.961c-2.7383 0-5.2109-1.6523-6.2578-4.1836-1.0469-2.5312-0.46875-5.4453 1.4688-7.3828s4.8516-2.5156 7.3828-1.4688c2.5312 1.0508 4.1797 3.5195 4.1797 6.2617-0.003906 3.7383-3.0352 6.7656-6.7734 6.7695zm0-10.617c-1.5547 0-2.957 0.93359-3.5508 2.3711s-0.26562 3.0898 0.83203 4.1875c1.1016 1.1016 2.7539 1.4297 4.1914 0.83594 1.4336-0.59766 2.3711-2 2.3711-3.5508-0.003906-2.125-1.7227-3.8438-3.8438-3.8477z"/>
  <path d="m76.133 15.43h-27.449c-0.80859 0-1.4648-0.65625-1.4648-1.4648s0.65625-1.4648 1.4648-1.4648h27.449c0.80859 0 1.4648 0.65625 1.4648 1.4648s-0.65625 1.4648-1.4648 1.4648z"/>
  <path d="m71.621 22.32h-18.426c-0.80859 0-1.4648-0.65625-1.4648-1.4648 0-0.80859 0.65625-1.4648 1.4648-1.4648h18.426c0.80859 0 1.4648 0.65625 1.4648 1.4648 0 0.80859-0.65625 1.4648-1.4648 1.4648z"/>
  <path d="m76.133 29.211h-27.449c-0.80859 0-1.4648-0.65234-1.4648-1.4609 0-0.8125 0.65625-1.4688 1.4648-1.4688h27.449c0.80859 0 1.4648 0.65625 1.4648 1.4688 0 0.80859-0.65625 1.4609-1.4648 1.4609z"/>
  <path d="m32.641 41.047h-5.5781c-0.80859 0-1.4648-0.65625-1.4648-1.4648 0-0.80859 0.65625-1.4648 1.4648-1.4648h5.5781c0.80859 0 1.4648 0.65625 1.4648 1.4648 0 0.80859-0.65625 1.4648-1.4648 1.4648z"/>
  <path d="m72.938 41.047h-33.398c-0.80859 0-1.4648-0.65625-1.4648-1.4648 0-0.80859 0.65625-1.4648 1.4648-1.4648h33.398c0.80859 0 1.4648 0.65625 1.4648 1.4648 0 0.80859-0.65625 1.4648-1.4648 1.4648z"/>
  <path d="m72.938 47.703h-45.875c-0.80859 0-1.4648-0.65625-1.4648-1.4688 0-0.80859 0.65625-1.4609 1.4648-1.4609h45.875c0.80859 0 1.4648 0.65234 1.4648 1.4609 0 0.8125-0.65625 1.4688-1.4648 1.4688z"/>
  <path d="m32.641 54.359h-5.5781c-0.80859 0-1.4648-0.65625-1.4648-1.4688 0-0.80859 0.65625-1.4609 1.4648-1.4609h5.5781c0.80859 0 1.4648 0.65234 1.4648 1.4609 0 0.8125-0.65625 1.4688-1.4648 1.4688z"/>
  <path d="m72.938 54.359h-33.398c-0.80859 0-1.4648-0.65625-1.4648-1.4688 0-0.80859 0.65625-1.4609 1.4648-1.4609h33.398c0.80859 0 1.4648 0.65234 1.4648 1.4609 0 0.8125-0.65625 1.4688-1.4648 1.4688z"/>
  <path d="m72.938 61.016h-45.875c-0.80859 0-1.4648-0.65625-1.4648-1.4688 0-0.80859 0.65625-1.4609 1.4648-1.4609h45.875c0.80859 0 1.4648 0.65234 1.4648 1.4609 0 0.8125-0.65625 1.4688-1.4648 1.4688z"/>
  <path d="m32.641 67.672h-5.5781c-0.80859 0-1.4648-0.65625-1.4648-1.4688 0-0.80859 0.65625-1.4609 1.4648-1.4609h5.5781c0.80859 0 1.4648 0.65234 1.4648 1.4609 0 0.8125-0.65625 1.4688-1.4648 1.4688z"/>
  <path d="m72.938 67.672h-33.398c-0.80859 0-1.4648-0.65625-1.4648-1.4688 0-0.80859 0.65625-1.4609 1.4648-1.4609h33.398c0.80859 0 1.4648 0.65234 1.4648 1.4609 0 0.8125-0.65625 1.4688-1.4648 1.4688z"/>
  <path d="m72.938 74.328h-45.875c-0.80859 0-1.4648-0.65625-1.4648-1.4688 0-0.80859 0.65625-1.4609 1.4648-1.4609h45.875c0.80859 0 1.4648 0.65234 1.4648 1.4609 0 0.8125-0.65625 1.4688-1.4648 1.4688z"/>
  <path d="m32.641 80.984h-5.5781c-0.80859 0-1.4648-0.65625-1.4648-1.4688 0-0.80859 0.65625-1.4609 1.4648-1.4609h5.5781c0.80859 0 1.4648 0.65234 1.4648 1.4609 0 0.8125-0.65625 1.4688-1.4648 1.4688z"/>
  <path d="m72.938 80.984h-33.398c-0.80859 0-1.4648-0.65625-1.4648-1.4688 0-0.80859 0.65625-1.4609 1.4648-1.4609h33.398c0.80859 0 1.4648 0.65234 1.4648 1.4609 0 0.8125-0.65625 1.4688-1.4648 1.4688z"/>
  <path d="m72.938 87.641h-45.875c-0.80859 0-1.4648-0.65625-1.4648-1.4688 0-0.80859 0.65625-1.4609 1.4648-1.4609h45.875c0.80859 0 1.4648 0.65234 1.4648 1.4609 0 0.8125-0.65625 1.4688-1.4648 1.4688z"/>
 </g>
<text x="0.0" y="117.5" font-size="5.0" font-weight="bold" font-family="Arbeit Regular, Helvetica, Arial-Unicode, Arial, Sans-serif" fill="#000000">Created by Designing Hub</text><text x="0.0" y="122.5" font-size="5.0" font-weight="bold" font-family="Arbeit Regular, Helvetica, Arial-Unicode, Arial, Sans-serif" fill="#000000">from Noun Project</text></svg>