<svg xmlns="http://www.w3.org/2000/svg" viewBox="0 0 32 40" x="0px" y="0px"><path d="M23,3H9c-2.21,0-4,1.79-4,4V25c0,2.21,1.79,4,4,4h14c2.21,0,4-1.79,4-4V7c0-2.21-1.79-4-4-4Zm2,22c0,1.1-.9,2-2,2H9c-1.1,0-2-.9-2-2V7c0-1.1,.9-2,2-2h14c1.1,0,2,.9,2,2V25Z"/><path d="M21,15H11c-1.32,0-1.32,2,0,2h10c1.32,0,1.32-2,0-2Z"/><path d="M21,21H11c-1.32,0-1.32,2,0,2h10c1.32,0,1.32-2,0-2Z"/><path d="M21,9H11c-1.32,0-1.32,2,0,2h10c1.32,0,1.32-2,0-2Z"/><text x="0" y="47" fill="#000000" font-size="5px" font-weight="bold" font-family="'Helvetica Neue', Helvetica, Arial-Unicode, Arial, Sans-serif">Created by Idwar</text><text x="0" y="52" fill="#000000" font-size="5px" font-weight="bold" font-family="'Helvetica Neue', Helvetica, Arial-Unicode, Arial, Sans-serif">from the Noun Project</text></svg>