<svg xmlns="http://www.w3.org/2000/svg" version="1.1" viewBox="-5.0 -10.0 110.0 135.0">
 <g>
  <path d="m83.332 94.793h-33.332c-6.332 0-11.457-5.125-11.457-11.457v-33.332c0-6.332 5.125-11.457 11.457-11.457h33.332c6.332 0 11.457 5.125 11.457 11.457v33.332c0 6.332-5.125 11.457-11.457 11.457zm-33.332-50c-2.875 0-5.207 2.332-5.207 5.207v33.332c0 2.875 2.332 5.207 5.207 5.207h33.332c2.875 0 5.207-2.332 5.207-5.207v-33.332c0-2.875-2.332-5.207-5.207-5.207z"/>
  <path d="m62.125 75.375c0 5.5547-8.332 5.5547-8.332 0s8.332-5.5547 8.332 0"/>
  <path d="m79.543 57.957c0 5.5586-8.3359 5.5586-8.3359 0 0-5.5547 8.3359-5.5547 8.3359 0"/>
  <path d="m34.375 65.332-21.418-21.418c-2-2.043-2-5.375 0-7.375l23.582-23.582c1.043-1 2.375-1.5 3.707-1.5 1.332 0 2.668 0.5 3.668 1.5l21.418 21.418h8.293c-0.45703-0.79297-1.043-1.582-1.707-2.25l-23.582-23.582c-4.457-4.418-11.707-4.418-16.207 0l-23.586 23.582c-4.418 4.457-4.418 11.707 0 16.207l23.625 23.625c0.66797 0.66797 1.418 1.207 2.25 1.668v-8.25z"/>
  <path d="m28.793 42.043c0 5.5547-8.3359 5.5547-8.3359 0 0-5.5586 8.3359-5.5586 8.3359 0"/>
  <path d="m46.207 24.625c0 5.5547-8.332 5.5547-8.332 0s8.332-5.5547 8.332 0"/>
 </g>
<text x="0.0" y="117.5" font-size="5.0" font-weight="bold" font-family="Arbeit Regular, Helvetica, Arial-Unicode, Arial, Sans-serif" fill="#000000">Created by Rolas Design</text><text x="0.0" y="122.5" font-size="5.0" font-weight="bold" font-family="Arbeit Regular, Helvetica, Arial-Unicode, Arial, Sans-serif" fill="#000000">from Noun Project</text></svg>