<svg xmlns="http://www.w3.org/2000/svg" xmlns:xlink="http://www.w3.org/1999/xlink" version="1.1" x="0px" y="0px" viewBox="0 0 512 640" style="enable-background:new 0 0 512 512;" xml:space="preserve"><title>Hobbies-hobby-activity-freetime-lifestyle</title><path d="M415.1,98.4c-19.5-19.7-42.5-35.7-67.9-47L340.7,66c23.5,10.5,44.9,25.3,63,43.6L415.1,98.4z"/><path d="M171.3,66l-6.5-14.6c-56,25.1-99.4,72.1-120,130l15.1,5.3C79,132.9,119.2,89.3,171.3,66z"/><path d="M109.6,403.8c-22.3-22.1-39.3-48.9-49.8-78.4l-15.1,5.3c11.3,31.8,29.6,60.7,53.6,84.5L109.6,403.8z"/><path d="M417.6,387L430,397c8.4-10.4,15.9-21.5,22.3-33.2l-14-7.7C432.4,367,425.4,377.3,417.6,387z"/><path d="M274.5,67.8l-25.6-17.1v0c-7.4-4.9-17.3-2.9-22.2,4.4c-1.8,2.6-2.7,5.7-2.7,8.9v34.1c0,8.8,7.2,16,16,16  c3.2,0,6.3-0.9,8.9-2.7l25.6-17.1c7.4-4.9,9.3-14.8,4.4-22.2C277.7,70.4,276.2,68.9,274.5,67.8L274.5,67.8z M240,98.1l0-34.1  c0,0,0,0,0,0v0l25.6,17.1L240,98.1z"/><path d="M336,256c0-35.3-28.7-64-64-64s-64,28.7-64,64s28.7,64,64,64C307.3,320,336,291.3,336,256z M272,304c-26.5,0-48-21.5-48-48  s21.5-48,48-48s48,21.5,48,48C320,282.5,298.5,304,272,304z"/><polygon points="264,252.7 242.3,274.3 253.7,285.7 280,259.3 280,224 264,224 "/><path d="M80,288v-8h40v8c0,13.2,10.8,24,24,24h16c13.2,0,24-10.8,24-24v-64c0-13.2-10.8-24-24-24h-16c-13.2,0-24,10.8-24,24v8H80v-8  c0-13.2-10.8-24-24-24H40c-13.2,0-24,10.8-24,24v64c0,13.2,10.8,24,24,24h16C69.2,312,80,301.2,80,288z M136,224c0-4.4,3.6-8,8-8h16  c4.4,0,8,3.6,8,8v64c0,4.4-3.6,8-8,8h-16c-4.4,0-8-3.6-8-8V224z M80,248h40v16H80V248z M32,288v-64c0-4.4,3.6-8,8-8h16  c4.4,0,8,3.6,8,8v64c0,4.4-3.6,8-8,8H40C35.6,296,32,292.4,32,288z"/><path d="M96,432c-13.3,0-24,10.7-24,24s10.7,24,24,24h72v0c7.5,10.1,19.4,16,32,16h112c22.1,0,40-17.9,40-40v-24H96z M96,464  c-4.4,0-8-3.6-8-8s3.6-8,8-8h64v8c0,2.7,0.3,5.4,0.8,8H96z M336,456c0,13.2-10.8,24-24,24H200c-13.2,0-24-10.8-24-24v-8h160V456z"/><rect x="248" y="360" width="16" height="16"/><rect x="160" y="352" width="16" height="16"/><rect x="168" y="400" width="16" height="16"/><rect x="192" y="368" width="16" height="16"/><rect x="216" y="392" width="16" height="16"/><rect x="216" y="344" width="16" height="16"/><rect x="264" y="400" width="16" height="16"/><path d="M432,247.5c14.6-1.7,28.2-8.4,38.6-18.8l6.1-6.1c12.4-12.3,19.4-29.1,19.3-46.6v-8h-8c-17.5,0-34.3,6.9-46.6,19.3l-6.1,6.1  c-4.5,4.5-8.3,9.6-11.3,15.1c-3-5.5-6.8-10.6-11.3-15.1l-6.1-6.1C394.3,174.9,377.5,168,360,168h-8v8c0,17.5,6.9,34.3,19.3,46.6  l6.1,6.1c10.4,10.4,24,17.1,38.6,18.8V264h-48v16h8.9l5.4,43c1.5,12,11.7,21,23.8,21h35.8c12.1,0,22.3-9,23.8-21l5.4-43h8.9v-16h-48  V247.5z M446.6,204.7l6.1-6.1c7.2-7.2,16.5-12.1,26.6-13.9c-1.8,10.1-6.6,19.3-13.9,26.6l-6.1,6.1c-7.2,7.2-16.5,12.1-26.6,13.9  C434.5,221.2,439.4,211.9,446.6,204.7z M388.7,217.4l-6.1-6.1c-7.2-7.2-12.1-16.5-13.9-26.6c10.1,1.8,19.3,6.6,26.6,13.9l6.1,6.1  c7.2,7.2,12.1,16.5,13.9,26.6C405.2,229.5,395.9,224.6,388.7,217.4L388.7,217.4z M454.9,280l-5.1,41c-0.5,4-3.9,7-7.9,7h-35.8  c-4,0-7.4-3-7.9-7l-5.1-41H454.9z"/><rect x="417.2" y="100" transform="matrix(0.4061 -0.9138 0.9138 0.4061 162.0841 465.4055)" width="43.8" height="16"/><rect x="410.8" y="144" transform="matrix(0.4061 -0.9138 0.9138 0.4061 110.2549 473.6583)" width="17.5" height="16"/><path d="M168,152c0,13.2,10.8,24,24,24h128c13.2,0,24-10.8,24-24v-24h-16V40c0-13.2-10.8-24-24-24h-96c-13.2,0-24,10.8-24,24v88h-16  V152z M200,40c0-4.4,3.6-8,8-8h96c4.4,0,8,3.6,8,8v88H200V40z M184,144h144v8c0,4.4-3.6,8-8,8H192c-4.4,0-8-3.6-8-8V144z"/><path d="M376,372.7v-14.1c0-6.4-2.5-12.5-7-17l-16-16c-9.4-9.4-24.6-9.4-33.9,0L293.7,351c-9.4,9.4-9.4,24.6,0,33.9l16,16  c4.5,4.5,10.6,7,17,7h14.1l65.7,65.7c9.8,9.7,25.6,9.7,35.3,0c9.7-9.7,9.7-25.5,0-35.3L376,372.7z M430.3,462.3  c-3.5,3.5-9.2,3.5-12.7,0c0,0,0,0,0,0L347.3,392h-20.7c-2.1,0-4.2-0.8-5.7-2.3l-16-16c-3.1-3.1-3.1-8.2,0-11.3l25.4-25.4  c3.1-3.1,8.2-3.1,11.3,0l16,16c1.5,1.5,2.3,3.5,2.3,5.7v20.7l70.3,70.3C433.8,453.2,433.8,458.8,430.3,462.3z"/><rect x="457.2" y="100" transform="matrix(0.4061 -0.9138 0.9138 0.4061 185.839 501.9581)" width="43.8" height="16"/><rect x="450.8" y="144" transform="matrix(0.4061 -0.9138 0.9138 0.4061 134.009 510.2105)" width="17.5" height="16"/><text x="0" y="527" fill="#000000" font-size="5px" font-weight="bold" font-family="'Helvetica Neue', Helvetica, Arial-Unicode, Arial, Sans-serif">Created by WiStudio</text><text x="0" y="532" fill="#000000" font-size="5px" font-weight="bold" font-family="'Helvetica Neue', Helvetica, Arial-Unicode, Arial, Sans-serif">from the Noun Project</text></svg>